<?xml version="1.0" encoding="UTF-8" standalone="no" ?>
<!DOCTYPE svg PUBLIC "-//W3C//DTD SVG 1.1//EN" "http://www.w3.org/Graphics/SVG/1.1/DTD/svg11.dtd">
<svg xmlns="http://www.w3.org/2000/svg" xmlns:xlink="http://www.w3.org/1999/xlink" version="1.1" width="1080" height="1080" viewBox="0 0 1080 1080" xml:space="preserve">
<desc>Created with Fabric.js 5.2.4</desc>
<defs>
</defs>
<g transform="matrix(1 0 0 1 540 540)" id="9f0598a9-255c-489e-b184-5a4f4cd205d1"  >
<rect style="stroke: none; stroke-width: 1; stroke-dasharray: none; stroke-linecap: butt; stroke-dashoffset: 0; stroke-linejoin: miter; stroke-miterlimit: 4; fill: rgb(255,255,255); fill-rule: nonzero; opacity: 1; visibility: hidden;" vector-effect="non-scaling-stroke"  x="-540" y="-540" rx="0" ry="0" width="1080" height="1080" />
</g>
<g transform="matrix(1 0 0 1 540 540)" id="7fc2edd9-a64d-4e99-a77c-326883ecc799"  >
</g>
<g transform="matrix(1 0 0 1 540 540)"  >
<g style="" vector-effect="non-scaling-stroke"   >
		<g transform="matrix(1.34 0 0 1.34 0 0)"  >
<path style="stroke: none; stroke-width: 1; stroke-dasharray: none; stroke-linecap: butt; stroke-dashoffset: 0; stroke-linejoin: miter; stroke-miterlimit: 4; fill: rgb(92,191,32); fill-rule: nonzero; opacity: 1;" vector-effect="non-scaling-stroke"  transform=" translate(-297.51, -297.51)" d="M 507.529 87.493 C 480.265 60.229 448.507 38.821 413.133 23.857999999999997 C 376.489 8.358 337.588 0.5 297.511 0.5 C 257.433 0.5 218.53200000000004 8.358 181.88700000000003 23.858 C 146.51400000000004 38.819 114.75500000000002 60.229 87.49200000000003 87.493 C 60.22800000000004 114.756 38.81900000000003 146.515 23.857000000000035 181.88799999999998 C 8.358 218.532 0.5 257.434 0.5 297.511 C 0.5 337.588 8.358 376.49 23.858 413.134 C 38.819 448.507 60.229 480.266 87.493 507.53000000000003 C 114.756 534.793 146.515 556.202 181.88799999999998 571.164 C 218.533 586.664 257.43399999999997 594.5219999999999 297.51199999999994 594.5219999999999 C 337.58899999999994 594.5219999999999 376.49099999999993 586.664 413.13499999999993 571.164 C 448.5079999999999 556.203 480.2679999999999 534.793 507.53099999999995 507.53 C 534.794 480.26599999999996 556.204 448.508 571.165 413.13399999999996 C 586.664 376.489 594.5229999999999 337.58799999999997 594.5229999999999 297.51099999999997 C 594.5229999999999 257.43399999999997 586.665 218.53199999999998 571.165 181.88699999999997 C 556.202 146.515 534.792 114.756 507.529 87.493 z M 297.511 551.682 C 157.13600000000002 551.682 43.34000000000003 437.885 43.34000000000003 297.511 C 43.34000000000003 157.13600000000002 157.13600000000002 43.34000000000003 297.511 43.34000000000003 C 437.885 43.34000000000003 551.682 157.13600000000002 551.682 297.511 C 551.682 437.885 437.885 551.682 297.511 551.682 z" stroke-linecap="round" />
</g>
		<g transform="matrix(1.34 0 0 1.34 0 0)"  >
<path style="stroke: none; stroke-width: 1; stroke-dasharray: none; stroke-linecap: butt; stroke-dashoffset: 0; stroke-linejoin: miter; stroke-miterlimit: 4; fill: rgb(92,191,32); fill-rule: nonzero; opacity: 1;" vector-effect="non-scaling-stroke"  transform=" translate(-297.51, -297.51)" d="M 297.511 595.021 C 257.365 595.021 218.39900000000003 587.149 181.69300000000004 571.6239999999999 C 146.26000000000005 556.636 114.44800000000004 535.1899999999999 87.14000000000004 507.8829999999999 C 59.83000000000004 480.5729999999999 38.38500000000004 448.7609999999999 23.398000000000046 413.3279999999999 C 7.872 376.623 0 337.656 0 297.511 C 0 257.36600000000004 7.872 218.39900000000003 23.397 181.69300000000004 C 38.384 146.26100000000002 59.83 114.44800000000004 87.139 87.14000000000004 C 114.447 59.831000000000046 146.259 38.38500000000004 181.692 23.398000000000046 C 218.399 7.872 257.366 0 297.511 0 C 337.65700000000004 0 376.62300000000005 7.872 413.32800000000003 23.397 C 448.76300000000003 38.385 480.57500000000005 59.830999999999996 507.88300000000004 87.139 C 535.193 114.449 556.638 146.262 571.624 181.692 C 587.149 218.39800000000002 595.0210000000001 257.365 595.0210000000001 297.51 C 595.0210000000001 337.654 587.1490000000001 376.62 571.624 413.327 C 556.639 448.759 535.192 480.571 507.88300000000004 507.882 C 480.57300000000004 535.192 448.761 556.6370000000001 413.32800000000003 571.623 C 376.623 587.149 337.656 595.021 297.511 595.021 z M 297.511 1 C 257.5 1 218.665 8.845 182.082 24.318 C 146.768 39.255 115.062 60.629000000000005 87.84599999999999 87.846 C 60.627999999999986 115.063 39.25499999999999 146.769 24.31799999999999 182.082 C 8.845 218.665 1 257.5 1 297.511 C 1 337.52200000000005 8.844999999999999 376.358 24.318 412.94000000000005 C 39.254000000000005 448.25200000000007 60.628 479.95900000000006 87.846 507.17600000000004 C 115.063 534.392 146.768 555.7660000000001 182.082 570.702 C 218.664 586.176 257.499 594.021 297.51099999999997 594.021 C 337.522 594.021 376.35799999999995 586.175 412.93999999999994 570.702 C 448.25199999999995 555.766 479.95899999999995 534.393 507.17599999999993 507.176 C 534.395 479.956 555.7679999999999 448.251 570.7019999999999 412.94 C 586.1759999999999 376.356 594.0209999999998 337.52 594.0209999999998 297.51099999999997 C 594.0209999999998 257.49999999999994 586.1749999999998 218.664 570.7019999999999 182.08199999999997 C 555.7669999999999 146.76999999999998 534.3929999999999 115.06499999999997 507.1759999999999 87.84599999999996 C 479.9589999999999 60.62999999999996 448.2539999999999 39.25599999999996 412.9399999999999 24.317999999999962 C 376.357 8.845 337.521 1 297.511 1 z M 297.511 552.182 C 229.48600000000002 552.182 165.532 525.692 117.43100000000001 477.59000000000003 C 69.33 429.489 42.84 365.535 42.84 297.511 C 42.84 229.48600000000002 69.33 165.532 117.431 117.43100000000001 C 165.53199999999998 69.33000000000001 229.486 42.84 297.511 42.84 C 365.535 42.84 429.49 69.33 477.59000000000003 117.431 C 525.692 165.53199999999998 552.182 229.486 552.182 297.511 C 552.182 365.535 525.692 429.49 477.59000000000003 477.59000000000003 C 429.489 525.691 365.535 552.182 297.511 552.182 z M 297.511 43.84 C 229.75300000000004 43.84 166.05100000000002 70.226 118.13800000000003 118.138 C 70.22500000000005 166.05 43.84 229.753 43.84 297.511 C 43.84 365.26900000000006 70.226 428.971 118.138 476.88300000000004 C 166.051 524.7950000000001 229.753 551.182 297.51099999999997 551.182 C 365.26899999999995 551.182 428.971 524.7950000000001 476.883 476.88300000000004 C 524.795 428.971 551.182 365.269 551.182 297.511 C 551.182 229.75300000000004 524.7950000000001 166.05100000000002 476.88300000000004 118.13800000000003 C 428.971 70.226 365.269 43.84 297.511 43.84 z" stroke-linecap="round" />
</g>
</g>
</g>
</svg>